{"title":"Spiders.3D.2013.720p.BRrip.Half-sbs.Divx.Arabic.Hard.Coded.Subs","uid":8222064,"size":2367519360,"categoryP":"video","categoryS":"3d","magnet":"?xt=urn:btih:f3ccace48868c33799d853c64383dd758cbf0d8c&amp;dn=Spiders.3D.2013.720p.BRrip.Half-sbs.Divx.Arabic.Hard.Coded.Subs&amp;tr=udp%3A%2F%2Ftracker.openbittorrent.com%3A80&amp;tr=udp%3A%2F%2Fopen.demonii.com%3A1337&amp;tr=udp%3A%2F%2Ftracker.coppersurfer.tk%3A6969&amp;tr=udp%3A%2F%2Fexodus.desync.com%3A6969","seeders":0,"leechers":1,"uploader":null,"files":1,"time":1362499920,"description":"General\nFormat                           : AVI\nFormat/Info                      : Audio Video Interleave\nFormat profile                   : OpenDML\nFile size                        : 2.20 GiB\nDuration                         : 1h 25mn\nOverall bit rate                 : 3 696 Kbps\n\nVideo\nID                               : 0\nFormat                           : MPEG-4 Visual\nFormat settings, BVOP            : 1\nFormat settings, QPel            : No\nFormat settings, GMC             : No warppoints\nFormat settings, Matrix          : Default (H.263)\nMuxing mode                      : Packed bitstream\nCodec ID                         : DX50\nCodec ID/Hint                    : DivX 5\nDuration                         : 1h 25mn\nBit rate                         : 3 544 Kbps\nWidth                            : 1 280 pixels\nHeight                           : 720 pixels\nDisplay aspect ratio             : 16:9\nFrame rate                       : 23.976 fps\nColor space                      : YUV\nChroma subsampling               : 4:2:0\nBit depth                        : 8 bits\nScan type                        : Progressive\nCompression mode                 : Lossy\nBits/(Pixel*Frame)               : 0.160\nStream size                      : 2.11 GiB (96%)\nWriting library                  : DivX 6.8.5 (UTC 2009-08-20)\n\nAudio\nID                               : 1\nFormat                           : MPEG Audio\nFormat version                   : Version 1\nFormat profile                   : Layer 3\nMode                             : Joint stereo\nMode extension                   : MS Stereo\nCodec ID                         : 55\nCodec ID/Hint                    : MP3\nDuration                         : 1h 25mn\nBit rate mode                    : Constant\nBit rate                         : 128 Kbps\nChannel(s)                       : 2 channels\nSampling rate                    : 48.0 KHz\nCompression mode                 : Lossy\nDelay relative to video          : 42ms\nStream size                      : 78.2 MiB (3%)\nAlignment                        : Split accross interleaves\nInterleave, duration             : 10 ms (0.24 video frame)\nInterleave, preload duration     : 790 ms\n\n","torrent":{"xt":"urn:btih:f3ccace48868c33799d853c64383dd758cbf0d8c","amp;dn":"Spiders.3D.2013.720p.BRrip.Half-sbs.Divx.Arabic.Hard.Coded.Subs","amp;tr":["udp%3A%2F%2Ftracker.openbittorrent.com%3A80","udp%3A%2F%2Fopen.demonii.com%3A1337","udp%3A%2F%2Ftracker.coppersurfer.tk%3A6969","udp%3A%2F%2Fexodus.desync.com%3A6969"],"infoHash":"f3ccace48868c33799d853c64383dd758cbf0d8c","infoHashBuffer":{"type":"Buffer","data":[243,204,172,228,136,104,195,55,153,216,83,198,67,131,221,117,140,191,13,140]},"announce":[],"urlList":[]}}